HIERARCHY
ROOT Hips
{
	OFFSET -14.64140 90.27770 -84.91600
	CHANNELS 6 Xposition Yposition Zposition Zrotation Xrotation Yrotation
	JOINT Spine
	{
		OFFSET 0.00000 13.20850 -1.60436
		CHANNELS 3 Zrotation Xrotation Yrotation
		JOINT Spine1
		{
			OFFSET 0.00000 8.61716 0.00000
			CHANNELS 3 Zrotation Xrotation Yrotation
			JOINT Spine2
			{
				OFFSET 0.00000 8.61717 0.00000
				CHANNELS 3 Zrotation Xrotation Yrotation
				JOINT Spine3
				{
					OFFSET 0.00000 8.61717 0.00000
					CHANNELS 3 Zrotation Xrotation Yrotation
					JOINT Neck
					{
						OFFSET 0.00000 11.07920 1.10792
						CHANNELS 3 Zrotation Xrotation Yrotation
						JOINT Neck1
						{
							OFFSET 0.00000 7.08032 0.00000
							CHANNELS 3 Zrotation Xrotation Yrotation
							JOINT Head
							{
								OFFSET 0.00000 7.08031 0.00000
								CHANNELS 3 Zrotation Xrotation Yrotation
								End site
								{
									OFFSET 0.00000 0.00000 0.00000
								}
							}
						}
					}
					JOINT RightShoulder
					{
						OFFSET -0.01000 7.91373 5.19711
						CHANNELS 3 Zrotation Xrotation Yrotation
						JOINT RightArm
						{
							OFFSET -18.41580 0.00000 0.00000
							CHANNELS 3 Zrotation Xrotation Yrotation
							JOINT RightForeArm
							{
								OFFSET -29.11090 0.00000 0.00000
								CHANNELS 3 Zrotation Xrotation Yrotation
								JOINT RightHand
								{
									OFFSET -24.65040 0.00000 0.00000
									CHANNELS 3 Zrotation Xrotation Yrotation
									JOINT RightHandThumb1
									{
										OFFSET -5.35114 -0.85590 3.97906
										CHANNELS 3 Zrotation Xrotation Yrotation
										JOINT RightHandThumb2
										{
											OFFSET -4.52789 0.00000 0.00000
											CHANNELS 3 Zrotation Xrotation Yrotation
											JOINT RightHandThumb3
											{
												OFFSET -2.46976 0.00000 0.00000
												CHANNELS 3 Zrotation Xrotation Yrotation
												End site
												{
													OFFSET 0.00000 0.00000 0.00000
												}
											}
										}
									}
									JOINT RightHandIndex1
									{
										OFFSET -14.26970 0.00000 2.88139
										CHANNELS 3 Zrotation Xrotation Yrotation
										JOINT RightHandIndex2
										{
											OFFSET -5.48836 0.00000 0.00000
											CHANNELS 3 Zrotation Xrotation Yrotation
											JOINT RightHandIndex3
											{
												OFFSET -3.01859 0.00000 0.00000
												CHANNELS 3 Zrotation Xrotation Yrotation
												End site
												{
													OFFSET 0.00000 0.00000 0.00000
												}
											}
										}
									}
									JOINT RightHandMiddle1
									{
										OFFSET -14.26970 0.00000 -0.09147
										CHANNELS 3 Zrotation Xrotation Yrotation
										JOINT RightHandMiddle2
										{
											OFFSET -6.17441 0.00000 0.00000
											CHANNELS 3 Zrotation Xrotation Yrotation
											JOINT RightHandMiddle3
											{
												OFFSET -3.56743 0.00000 0.00000
												CHANNELS 3 Zrotation Xrotation Yrotation
												End site
												{
													OFFSET 0.00000 0.00000 0.00000
												}
											}
										}
									}
									JOINT RightHandRing1
									{
										OFFSET -12.69180 0.00000 -3.06433
										CHANNELS 3 Zrotation Xrotation Yrotation
										JOINT RightHandRing2
										{
											OFFSET -5.62556 0.00000 0.00000
											CHANNELS 3 Zrotation Xrotation Yrotation
											JOINT RightHandRing3
											{
												OFFSET -3.56744 0.00000 0.00000
												CHANNELS 3 Zrotation Xrotation Yrotation
												End site
												{
													OFFSET 0.00000 0.00000 0.00000
												}
											}
										}
									}
									JOINT RightHandPinky1
									{
										OFFSET -11.11390 0.00000 -6.03719
										CHANNELS 3 Zrotation Xrotation Yrotation
										JOINT RightHandPinky2
										{
											OFFSET -4.52789 0.00000 0.00000
											CHANNELS 3 Zrotation Xrotation Yrotation
											JOINT RightHandPinky3
											{
												OFFSET -2.46976 0.00000 0.00000
												CHANNELS 3 Zrotation Xrotation Yrotation
												End site
												{
													OFFSET 0.00000 0.00000 0.00000
												}
											}
										}
									}
								}
							}
						}
					}
					JOINT LeftShoulder
					{
						OFFSET 0.01000 7.91373 5.19711
						CHANNELS 3 Zrotation Xrotation Yrotation
						JOINT LeftArm
						{
							OFFSET 18.41580 0.00000 0.00000
							CHANNELS 3 Zrotation Xrotation Yrotation
							JOINT LeftForeArm
							{
								OFFSET 29.11090 0.00000 0.00000
								CHANNELS 3 Zrotation Xrotation Yrotation
								JOINT LeftHand
								{
									OFFSET 24.65040 0.00000 0.00000
									CHANNELS 3 Zrotation Xrotation Yrotation
									JOINT LeftHandThumb1
									{
										OFFSET 5.35114 -0.85590 3.97906
										CHANNELS 3 Zrotation Xrotation Yrotation
										JOINT LeftHandThumb2
										{
											OFFSET 4.52789 0.00000 0.00000
											CHANNELS 3 Zrotation Xrotation Yrotation
											JOINT LeftHandThumb3
											{
												OFFSET 2.46977 0.00000 0.00000
												CHANNELS 3 Zrotation Xrotation Yrotation
												End site
												{
													OFFSET 0.00000 0.00000 0.00000
												}
											}
										}
									}
									JOINT LeftHandIndex1
									{
										OFFSET 14.26970 0.00000 2.88139
										CHANNELS 3 Zrotation Xrotation Yrotation
										JOINT LeftHandIndex2
										{
											OFFSET 5.48836 0.00000 0.00000
											CHANNELS 3 Zrotation Xrotation Yrotation
											JOINT LeftHandIndex3
											{
												OFFSET 3.01859 0.00000 0.00000
												CHANNELS 3 Zrotation Xrotation Yrotation
												End site
												{
													OFFSET 0.00000 0.00000 0.00000
												}
											}
										}
									}
									JOINT LeftHandMiddle1
									{
										OFFSET 14.26970 0.00000 -0.09147
										CHANNELS 3 Zrotation Xrotation Yrotation
										JOINT LeftHandMiddle2
										{
											OFFSET 6.17440 0.00000 0.00000
											CHANNELS 3 Zrotation Xrotation Yrotation
											JOINT LeftHandMiddle3
											{
												OFFSET 3.56744 0.00000 0.00000
												CHANNELS 3 Zrotation Xrotation Yrotation
												End site
												{
													OFFSET 0.00000 0.00000 0.00000
												}
											}
										}
									}
									JOINT LeftHandRing1
									{
										OFFSET 12.69180 0.00000 -3.06433
										CHANNELS 3 Zrotation Xrotation Yrotation
										JOINT LeftHandRing2
										{
											OFFSET 5.62556 0.00000 0.00000
											CHANNELS 3 Zrotation Xrotation Yrotation
											JOINT LeftHandRing3
											{
												OFFSET 3.56744 0.00000 0.00000
												CHANNELS 3 Zrotation Xrotation Yrotation
												End site
												{
													OFFSET 0.00000 0.00000 0.00000
												}
											}
										}
									}
									JOINT LeftHandPinky1
									{
										OFFSET 11.11390 0.00000 -6.03719
										CHANNELS 3 Zrotation Xrotation Yrotation
										JOINT LeftHandPinky2
										{
											OFFSET 4.52789 0.00000 0.00000
											CHANNELS 3 Zrotation Xrotation Yrotation
											JOINT LeftHandPinky3
											{
												OFFSET 2.46976 0.00000 0.00000
												CHANNELS 3 Zrotation Xrotation Yrotation
												End site
												{
													OFFSET 0.00000 0.00000 0.00000
												}
											}
										}
									}
								}
							}
						}
					}
					JOINT pCube4
					{
						OFFSET 0.00000 10.91090 1.10792
						CHANNELS 3 Zrotation Xrotation Yrotation
						End site
						{
							OFFSET 0.00000 0.00000 0.00000
						}
					}
				}
			}
		}
	}
	JOINT RightUpLeg
	{
		OFFSET -9.98441 0.00000 0.00000
		CHANNELS 3 Zrotation Xrotation Yrotation
		JOINT RightLeg
		{
			OFFSET 0.00000 -42.11790 0.00000
			CHANNELS 3 Zrotation Xrotation Yrotation
			JOINT RightFoot
			{
				OFFSET 0.00000 -45.00020 -0.00001
				CHANNELS 3 Zrotation Xrotation Yrotation
				JOINT RightForeFoot
				{
					OFFSET 0.00000 -3.74820 0.00000
					CHANNELS 3 Zrotation Xrotation Yrotation
					JOINT RightToeBase
					{
						OFFSET 0.00000 0.06325 14.43120
						CHANNELS 3 Zrotation Xrotation Yrotation
						End site
						{
							OFFSET 0.00000 0.00000 0.00000
						}
					}
				}
			}
		}
	}
	JOINT LeftUpLeg
	{
		OFFSET 9.98441 0.00000 0.00000
		CHANNELS 3 Zrotation Xrotation Yrotation
		JOINT LeftLeg
		{
			OFFSET 0.00000 -42.11800 0.00000
			CHANNELS 3 Zrotation Xrotation Yrotation
			JOINT LeftFoot
			{
				OFFSET 0.00000 -45.00070 0.00000
				CHANNELS 3 Zrotation Xrotation Yrotation
				JOINT LeftForeFoot
				{
					OFFSET 0.00000 -3.74824 0.00000
					CHANNELS 3 Zrotation Xrotation Yrotation
					JOINT LeftToeBase
					{
						OFFSET 0.00000 0.06325 14.43110
						CHANNELS 3 Zrotation Xrotation Yrotation
						End site
						{
							OFFSET 0.00000 0.00000 0.00000
						}
					}
				}
			}
		}
	}
}
MOTION
Frames: 4
Frame Time: 0.050000
0.013187657887234147 0.048444947404062896 0.044741654838174404 -0.01928435804301888 -0.040088543310091436 -0.002725363644546987 -2.4823197085688617 -0.3367685593616845 -0.8815400111756047 -0.7335783194473199 3.5062997958559414 0.32293644994132226 -1.0402654522984183 -2.242748628565084 -2.2148487731785416 0.2663788055340187 -0.0011511095357155943 -0.9780387315426274 -0.012063064333138113 13.07937201074186 0.0770458256969639 0.224221448976127 0.414714159424208 -0.30200437854877615 0.1803362177877889 -14.061984479203032 0.015388696253579887 -4.161637688173977 1.5984618425809527 -14.443563519938492 69.31792173432633 9.455315517828033 9.900411303199656 50.44798283607034 4.766919234389688 94.61170603601373 25.260346952408344 -0.32570416661106766 -4.995071672900765 4.577823486802502 -0.16899886574677558 -1.6371105001496202 0.023310215588684992 -0.007803846692137538 -56.19348782803406 -0.02063592413277785 0.031012655660527872 -56.227834575926856 -38.75730173402163 -0.025418850609275245 0.02955942711695633 -0.013728276588508151 0.005528221530370784 -0.012820654567102017 0.03707921136020582 0.048985074403048785 0.00042882432139555374 -36.681454217256956 0.0065601542611354955 0.004958830404675602 0.03816126777542477 -0.03224866280035577 -0.019356393273481234 0.010572896998593316 0.0029552303737217706 -0.026955320325171072 -19.804761510116744 0.014602664005980715 0.013500418304251898 -0.01691934484627395 0.04521565601305111 0.01222484927670553 0.012768089974463662 -0.025320597280042555 -0.02441536990913191 24.087124811377617 -0.002779964112088208 -0.02438880157794539 28.848703585273814 -0.016035870168167807 -0.0043822252401253155 28.82117955182431 -0.009666512163199893 0.032542334645618995 6.940386068221358 1.6551795126934024 11.885996929828316 -69.35904781449169 14.177497541294901 -15.187209807631044 -75.18339282488219 0.4166240484234263 -96.56789112830857 -17.465598319160442 -2.1168287263041026 -0.11748876909800512 -0.5022974001292204 0.05774117390635879 -8.120136494251842 -0.025989136778302887 -0.015227835343795307 44.61103586802901 0.028785673245147348 0.018798946633624167 44.58099187265906 12.41060967457002 0.020304721499109623 0.030804123128410927 -0.044035746749946626 0.007066982012294288 -0.012912133357879387 0.005740756717197573 -0.04591849316626914 -0.01071248182202435 11.134746979466001 -0.004784951104679371 -0.002640340820732451 -0.01819842831605678 -0.03348952624108062 -0.012153343670067141 -0.0282910414957634 -0.00013961492005898943 0.026671658369747293 4.750781187060032 0.04878114587917085 -0.045525197838384025 0.04039943541069833 0.008504528688103355 0.020712511023796076 -0.020656258322083017 -0.04823881318456264 0.00035679501693299827 -5.568576907304731 -0.00876353469441518 -0.0045565781845391395 -6.754934592668472 -0.021439067876934025 0.02224959571634441 -6.757226466534471 0.026446273066394223 0.001386380401628034 0.008280840327406535 -0.0001882326712306846 0.03758302401718882 8.046919374839252 3.5129527686594786 -19.210923746557846 -0.03465009321162042 10.354599359913347 0.00021665635111030312 -5.5883313091288755 -15.65181040404923 3.173845234503486 -0.013976736361653442 -0.008303735201331543 0.03024880316568815 0.006155622570256816 4.708338287351263 -0.01517539258029513 12.489706606050053 -8.272939218279587 6.867084761199781 0.013472951043834133 46.39844040746191 -0.004188303044483319 -4.3492851143482145 -14.700537802328766 -3.8514377661961667 -0.04329866694998212 0.00146316763353867 0.008386763854634617 0.01266407276357374 -10.719511939929296 0.04454394267131809 
-0.012771096603860124 0.02354752180927112 -0.023817035112881774 -0.021187536198535833 0.008297297384346177 -0.03392793949542415 -2.548796222863943 -0.4609930698070361 -0.9085524533412344 -0.7280471942038027 3.594804175086521 0.34965420853737905 -1.0578215423631327 -2.3032979995501073 -2.2049692468805446 0.3079806188751066 -0.02091637084957913 -0.980358574569329 -0.017411904246476144 12.9521573395145 0.04153529907176967 0.21342480674422015 0.3540766518287848 -0.27005434137576073 0.12770742919375744 -14.155794065814703 0.02708575818061133 -4.106293493023248 1.5450782748716871 -14.56000397685177 69.64788775967266 10.70639211556596 8.691449480602135 50.49319641774288 5.408389242699084 94.07309992994294 25.116762219722528 -0.29505464365270156 -4.917989405700078 4.538511016361769 -0.1425028280095488 -1.6018462783805254 -0.01341069651173156 0.03333860134357476 -56.24249120256959 0.03966624494082044 0.02762936158615821 -56.25324808845566 -38.80560616968414 -0.010013028745008834 0.04428277112960166 -0.009839037706516035 -0.03128739870716801 -0.02998751379144738 0.017624899124581324 -0.04298436987616845 0.0066024854935933935 -36.70274950440605 -0.014758055900091223 0.03032853149565656 0.00026825843569285875 0.03405807564701483 -0.021426209066728746 0.03258856250312759 -0.03017420129129125 -0.04740305688938516 -19.78283373045799 -0.04380337642883699 -0.027955548718012254 -0.022297090501936817 -0.04479637785857325 -0.0153502342272222 0.03157837006188002 -0.022139436177450695 -0.036090746857903824 24.038609358490383 0.023621137630780224 0.006881856894751021 28.855051473591082 0.03739644101867763 -0.008149843760277798 28.881370199400067 0.03438841470375549 0.014779095226353942 6.8849101253067655 1.665324430032678 11.939491254720974 -70.0609463770464 14.1884262283705 -13.99130782827754 -78.25724269003666 0.8961382719397801 -97.76877565436536 -18.022532621045443 -2.120673638330138 -0.1905253759262292 -0.46899179245523964 0.028988931103060576 -8.170912727525584 0.010792513899107627 0.030756694472503652 44.57915961217346 -0.03682774002708671 -0.021675915628680275 44.572022651932954 12.475874772313476 0.0049357904183823355 -0.007816338066303287 0.02761353442584031 0.027191103918859656 -0.0016069562303719393 -0.021786650028250816 0.0044986687007430234 0.03163236715429066 11.065297078165168 -0.0113868116987495 0.015889551472298473 -0.046284606518595575 0.017155117139626898 0.0076830862510362105 -0.021521090863865278 0.04477253040345885 -0.03724921605441219 4.806159515836625 0.009256022750362029 0.01990045219148192 -0.025721277998626627 -0.01747309217104884 0.015243407110161788 0.003004675483992987 0.0025246849370133113 -0.02374547536598233 -5.627064509671813 -0.004173709266882837 0.03168605356346989 -6.681442775186302 -0.009064941348107135 0.016476216270836785 -6.7190105985049415 0.03559934286799909 -0.019426980626201896 0.00599796082483876 -0.029189063461684744 0.0016362336614177571 8.03753508635467 3.466579913171261 -19.185473715535345 -0.02861562740926595 10.410164511547785 0.03503150821040938 -5.60994022754005 -15.69577015091435 3.1998851555000423 -0.01539573063584614 -0.03128280126917523 0.003854894760406772 -0.01250895243211088 4.704598696362473 0.03056010204678556 12.417050710377122 -8.284661648550628 6.9000053187991375 0.044194766927772244 46.42327040593375 0.03697868676060278 -4.361472279891895 -14.78691323989471 -3.8612209918911287 0.04263741778584831 0.003460133244891687 0.01903835581763912 0.04940794554709503 -10.734275517890495 0.042854779411183305 
-0.022223795078004552 -0.02560902824871374 -0.04904200368683182 0.039969119119600445 -0.027882964108913784 -0.0266872472331718 -2.5927439743723926 -0.4465335613178706 -0.9008788403592775 -0.7847241792577396 3.496567618969801 0.27335959819256134 -1.0769259409287815 -2.2661641440373006 -2.2489570451701195 0.3048960515677825 0.03407922853804069 -0.990300585476979 -0.042995487276695846 12.760153888687523 0.0644947041715548 0.20622706788580242 0.2552035019204801 -0.3105250191654558 0.10488645244525607 -14.264715522587968 -0.041373812109553 -3.9325720926695027 1.5486905128184343 -14.617365342570642 69.70452455138037 10.450964856330964 7.500331979683171 49.21348815599993 6.033503526321871 92.90070227373074 24.86153075918272 -0.2746522288957312 -4.93144306476666 4.547001460374318 -0.17044658629853596 -1.5912417076214749 0.0024728947464882 -0.03661354663792995 -56.19813913665862 -0.0001930333325337199 -0.04244233217294178 -56.275548471036515 -38.78023776652659 0.011430196532328487 0.03634690804362657 -0.020781886653311103 -0.035218642919382245 -0.015617082547165706 0.030873168427353985 0.015781291469789085 0.04577584640444746 -36.707415068856285 0.04116861883107223 -0.023401955689393267 -0.0438390940765905 -0.016431990616992888 0.014225905223042205 0.022142387127594757 -0.020702618961403303 -0.013879477916339247 -19.80579411965978 0.006347157631465292 -0.014053054597533884 0.0074282753193271305 0.003910342898243867 -0.012890093329208634 0.01955807669950681 0.013648785997416361 -0.03133193867035188 24.00426124844537 0.0047845591220497695 -0.04630868590216515 28.89350784413291 0.034303314714590395 -0.009292796146348056 28.822106303462025 -0.0012111380496100876 0.013281729828432481 6.788727565407902 1.6197281008360305 12.05192146466473 -70.47219297048738 13.425011436265342 -13.286910671976607 -78.97665006039074 1.0215590384853657 -98.11390185547474 -17.657546451956858 -1.8425966993484564 -0.5143617849724352 -0.43471759934119497 0.08659475013718661 -8.11496273332142 0.037007150648121684 -0.03276513324030068 44.539740033318246 0.012637188664854197 -0.028730113229325147 44.61348295385627 12.42691460108843 0.010023442192154869 -0.03088875424440304 0.026032579137891254 -0.038933050509254864 0.03197529441092752 0.003785887944943029 0.0011661508812413396 -0.02747410427781703 11.122452603755436 0.021598935951509073 0.01847411158827219 0.0015275165525987014 -0.04130423094746349 -0.00452292216910011 -0.018034325749141464 0.02019753418738321 0.0070933341330214564 4.745660684803108 -0.029850139007999772 0.03130295707715992 -0.025584671390885064 0.012020445143753425 -0.047804099019616346 0.04033571071469575 0.049004911290935566 0.0035876345209291676 -5.56099104267217 -0.015006608187398914 -0.008838113017028361 -6.682233631672346 -0.04511265892092921 0.02366391036486305 -6.716978226035166 -0.023263938781112225 -0.04134160606953506 -0.045640993986582896 0.008656931934857387 -0.007337798757640598 8.075010901327186 3.512389720223859 -19.228421651868512 -0.030086130235669334 10.414359433828492 0.01796780012941679 -5.648588004790212 -15.64350166352418 3.193426360742204 -0.03295075915725232 -0.016562907252559784 -0.0008670578421179577 0.01687497909477409 4.687427026719504 -0.014901276668077371 12.496092254827717 -8.197065830423485 6.906322786532511 -0.020334428910654123 46.40519912193062 0.02157483700774904 -4.361618244074754 -14.74971089785034 -3.878389665568853 0.028973780476941578 -0.03212954844633175 -0.020120521356737347 0.0206887781756221 -10.731999731483914 0.01859946670470917 
-0.030322699900388096 -0.04183876053388666 0.017961696964622083 -0.04962588769845958 0.025455831937027704 0.033561105864487094 -2.6385710215402955 -0.4704241700532421 -0.8637267205492176 -0.7711074691815306 3.48001881333763 0.3021525166865992 -1.0978405519349765 -2.2634354376964305 -2.293489250459183 0.2659094222060202 0.027254636665796278 -1.0393987161286216 -0.0007586672106182704 12.613849909336007 0.07131719562984973 0.22072935927571655 0.20614931033892664 -0.3781425670851957 0.12971738984229572 -14.25538810072194 0.024136164636786656 -3.8766641017785566 1.4950218708345095 -14.702099266618331 69.7397164162544 9.860653221709322 6.6035441308902545 47.835728206125154 6.498005617339256 91.92756552435132 24.803710850304704 -0.2756972803104311 -5.103384975817518 4.543388145005736 -0.08026046012877393 -1.5577833281803073 -0.021464936059489702 0.02609211531637606 -56.198409647593756 -0.011959224631176388 0.015699318764780475 -56.23187212594407 -38.73865537737114 0.04896096067203645 -0.024609800215028066 0.02713587858233658 -0.02362960923881163 -0.025332364865899383 -0.02312601611889939 -0.015659191089904 0.019184019909640044 -36.72551229821163 -0.006591943423500786 -0.005031888020918336 -0.03561092093744267 -0.03863687397690778 0.001707219039989885 -0.005712205940740713 0.037515094425041626 -0.027741418679628968 -19.71016803481069 0.020360273056244976 -0.008283405332243338 -0.013169152247197257 0.0495981958636804 0.0066334829957113445 -0.04200964345677148 -0.014872545295136994 -0.029869215444271468 24.00862418149257 -0.036174831732636525 -0.01231540637137364 28.862903980891335 -0.0017502913082159946 0.03273040211459846 28.875143642517223 0.020521648368032656 0.04990823879710313 6.675018742269102 1.625344084946398 12.137147972256109 -70.75365718132143 12.632691390916289 -12.488200037944335 -78.97611145231369 1.0634653667185145 -98.26434449283913 -17.09408221476488 -1.5600805514470109 -0.8198671628971053 -0.47213653431733227 0.0579169753587728 -8.148106594691464 0.02953701408435083 -0.04186050552589348 44.53633984813228 0.048661284565123974 0.01693373048915851 44.55853023820963 12.421037062075754 0.016633550432710194 -0.0009243198278242915 -0.03485458683240337 0.006827247061357963 0.048118956294885454 -0.015499713160854908 0.013283309455097262 -0.01350051948909538 11.091635673818146 -0.0336593312233248 -0.032243668812206125 -0.005514561324505269 0.011822921364311676 -0.02248214639538966 0.016717225013024865 -0.04034952575790359 -0.030511049576775712 4.785069758181517 -0.04068058429665569 0.04159725643600802 0.012352914179917166 0.021490536882400255 -0.008938105220895963 0.028266281565172153 -0.017696052794939906 0.010607838611976048 -5.614623249680678 0.041972794442686416 -0.018490179102573584 -6.677934016512761 0.047872337868202344 0.015257104652693223 -6.706984667755766 0.04352077135398954 0.024814346610125736 0.025312465440241263 -0.03245313186818618 0.006206306296222008 8.09285764317554 3.531140583254164 -19.255744258528633 -0.010949981201693092 10.397830846354282 0.008454148185025807 -5.5989827183099115 -15.646281353530236 3.226982542188516 0.008380434448499527 0.03603419623022886 -0.04544064267568586 0.03054219934391886 4.6824521728398985 0.04487634336001634 12.452757958358076 -8.261752387097046 6.882147985767416 0.041451518841235574 46.39192679248498 0.01877836612077388 -4.317475970002254 -14.797297885721594 -3.8269319012584924 0.038872524588044965 0.002582203236642661 -0.002167710945458317 0.04488149254804555 -10.785191319428344 0.0018171374718049717 
